# xmcd
#
# Track frame offsets: 
#        150
#        15718
#        32076
#        46108
#        58120
#        70335
#        84767
#        101149
#        116269
#        127986
#        139683
#        150151
#        160191
#        173044
#        187602
#        198315
#        207607
#        222070
#        231847
#        246299
#
# Disc length: 3423 seconds
#
# Revision: 0
# Processed by: cddbd v1.5.2PL0 Copyright (c) Steve Scherf et al.
# Submitted via: ExactAudioCopyFreeDBPlugin 1.0
#
DISCID=020d5d14
DTITLE=Memphis Slim - Memphis Slim - Six Classic Albums
DYEAR=1959
DGENRE=Traditional American
TTITLE0=Walkin The Boogie
TTITLE1=Cow Cow Blues
TTITLE2=Jefferson County Blues
TTITLE3=Four O'Clock Blues
TTITLE4=Mister Freddie
TTITLE5=Trouble In Mind
TTITLE6=44 Blues
TTITLE7=88 Boogie
TTITLE8=Sail On Blues
TTITLE9=Down Home Blues
TTITLE10=Down That Big Road
TTITLE11=Roll And Tumble
TTITLE12=Crowing Rooster
TTITLE13=Woman Blues Boogie
TTITLE14=The Come Back
TTITLE15=Steppin' Out
TTITLE16=Blue and Lonesome
TTITLE17=Rocking the Blues
TTITLE18=Slim's Blues
TTITLE19=Gotta Find My Baby
EXTD=
EXTT0=
EXTT1=
EXTT2=
EXTT3=
EXTT4=
EXTT5=
EXTT6=
EXTT7=
EXTT8=
EXTT9=
EXTT10=
EXTT11=
EXTT12=
EXTT13=
EXTT14=
EXTT15=
EXTT16=
EXTT17=
EXTT18=
EXTT19=
PLAYORDER=
